<?xml version='1.0' encoding='iso-8859-1'?>
<svg version="1.1" xmlns="http://www.w3.org/2000/svg" viewBox="0 0 463 463" xmlns:xlink="http://www.w3.org/1999/xlink" enable-background="new 0 0 463 463">
  <path d="m463,231.499c0-18.357-10.732-35.362-29.036-46.516 6.95-12.687 8.539-26.497 3.453-38.777-5.109-12.334-15.984-20.972-29.854-25.017 5.041-20.815 0.604-40.412-12.369-53.385-12.974-12.975-32.575-17.413-53.392-12.368-4.047-13.873-12.686-24.75-25.009-29.855-12.17-5.041-25.999-3.363-38.705,3.577-11.153-18.377-28.191-29.158-46.589-29.158-18.395,0-35.432,10.778-46.584,29.151-12.702-6.939-26.529-8.615-38.71-3.57-12.338,5.111-20.977,15.985-25.021,29.854-20.815-5.04-40.408-0.602-53.38,12.37-13.009,13.009-17.434,32.679-12.326,53.558-13.891,4.076-24.855,12.668-29.898,24.842-5.042,12.173-3.364,26.002 3.577,38.708-18.377,11.153-29.157,28.191-29.157,46.588 0,18.386 10.767,35.415 29.123,46.567-6.938,12.69-8.603,26.508-3.543,38.725 5.117,12.354 15.986,20.994 29.853,25.034-5.035,20.808-0.597,40.398 12.373,53.367 9.477,9.477 22.487,14.399 36.926,14.399 5.321,0 10.837-0.68 16.44-2.035 4.041,13.869 12.68,24.742 25.032,29.859 4.786,1.982 9.824,2.93 14.948,2.93 7.926,0 16.055-2.276 23.769-6.492 11.153,18.37 28.187,29.145 46.58,29.145 18.392,0 35.425-10.773 46.578-29.14 7.713,4.214 15.84,6.49 23.765,6.489 5.123,0 10.164-0.948 14.948-2.93 11.794-4.885 20.613-15.358 24.833-29.489 0.039-0.13 0.071-0.264 0.109-0.394 5.636,1.371 11.184,2.058 16.536,2.057 14.438,0 27.45-4.923 36.925-14.398 12.972-12.972 17.41-32.568 12.37-53.382 13.869-4.045 24.742-12.684 29.851-25.018 5.045-12.18 3.37-26.007-3.57-38.71 18.375-11.153 29.154-28.19 29.154-46.586zm-39.441-79.553c6.384,15.411-4.625,35.969-25.669,48.344-4.338-2.426-9.22-4.513-14.57-6.185 7.581-9.757 9.845-19.656 6.34-28.117-3.504-8.461-12.105-13.86-24.365-15.399 2.602-4.969 4.579-9.899 5.932-14.685 23.677-6.149 45.915,0.551 52.332,16.042zm-52.822,104.696c-4.243-3.251-8.999-6.257-14.122-8.934 6.484-6.148 10.129-11.696 10.415-12.139 1.6-2.477 1.6-5.661 0-8.138-0.289-0.448-3.93-5.994-10.412-12.14 5.122-2.677 9.877-5.683 14.119-8.933 19.961,4.041 34.185,14.386 34.185,25.142s-14.224,21.101-34.185,25.142zm-58.56,91.092c-0.702-5.299-1.938-10.787-3.668-16.302 0.719,0.019 1.428,0.032 2.114,0.032 7.826,0 13.354-1.149 13.833-1.252 2.883-0.62 5.134-2.872 5.754-5.754 0.113-0.526 1.461-7.015 1.224-15.938 5.514,1.728 10.999,2.954 16.297,3.655 11.26,16.973 14.003,34.347 6.396,41.953-7.606,7.606-24.978,4.864-41.95-6.394zm-14.427,13.485c-0.545,7.677-2.968,13.129-6.479,14.584-3.513,1.455-9.08-0.688-14.895-5.73-7.055-6.119-13.762-15.928-18.517-27.029 0.93-1.642 1.806-3.356 2.598-5.148 6.838,3.192 11.861,4.313 12.341,4.415 0.521,0.111 1.043,0.165 1.562,0.165 2.504,0 4.888-1.258 6.29-3.417 0.26-0.4 3.024-4.748 5.607-11.858 1.826,0.706 3.656,1.306 5.474,1.809 4.487,11.213 6.682,22.893 6.019,32.209zm-66.251,43.704c-10.743,0-21.075-14.188-25.127-34.11 3.203-4.189 6.212-8.939 8.932-14.179 6.14,6.472 11.678,10.108 12.126,10.397 1.238,0.8 2.654,1.2 4.069,1.2s2.831-0.4 4.069-1.2c0.448-0.289 5.986-3.924 12.126-10.397 2.72,5.24 5.729,9.99 8.932,14.179-4.052,19.922-14.384,34.11-25.127,34.11zm-80.678-57.188c-16.972,11.258-34.343,14-41.95,6.394-7.596-7.596-4.87-24.933 6.351-41.884 5.227-0.697 10.714-1.927 16.343-3.708-0.234,8.917 1.11,15.402 1.222,15.922 0.62,2.883 2.872,5.134 5.754,5.754 0.478,0.103 6.005,1.252 13.833,1.252 0.686,0 1.394-0.012 2.114-0.032-1.729,5.514-2.966,11.003-3.667,16.302zm-92.745-116.235c7.10543e-15-10.756 14.223-21.101 34.185-25.142 4.243,3.25 8.998,6.257 14.12,8.933-6.475,6.14-10.117,11.682-10.413,12.14-1.6,2.477-1.6,5.661 0,8.138 0.289,0.448 3.93,5.994 10.412,12.14-5.122,2.677-9.877,5.683-14.119,8.933-19.962-4.041-34.185-14.386-34.185-25.142zm92.745-116.234c0.701,5.298 1.938,10.785 3.666,16.299-8.927-0.238-15.42,1.111-15.946,1.224-2.883,0.62-5.134,2.872-5.754,5.754-0.111,0.515-1.455,7.006-1.22,15.927-5.63-1.782-11.119-3.018-16.347-3.716-11.22-16.951-13.946-34.287-6.35-41.883 7.607-7.605 24.978-4.863 41.951,6.395zm14.426-13.485c0.546-7.677 2.968-13.129 6.48-14.584 3.511-1.455 9.08,0.688 14.895,5.73 7.054,6.118 13.759,15.925 18.515,27.024-0.93,1.642-1.799,3.363-2.592,5.154-6.84-3.193-11.863-4.314-12.346-4.417-3.036-0.646-6.16,0.647-7.851,3.252-0.261,0.402-3.024,4.749-5.606,11.856-1.828-0.707-3.66-1.313-5.479-1.816-4.486-11.21-6.678-22.885-6.016-32.199zm66.252-43.704c10.742,0 21.073,14.185 25.126,34.105-3.202,4.189-6.209,8.943-8.93,14.183-6.139-6.471-11.675-10.104-12.127-10.396-2.477-1.6-5.661-1.6-8.138,0-0.436,0.282-5.979,3.922-12.125,10.4-2.721-5.241-5.729-9.997-8.932-14.186 4.052-19.92 14.383-34.106 25.126-34.106zm80.678,57.189c16.973-11.257 34.345-13.998 41.951-6.394 7.607,7.606 4.864,24.98-6.396,41.953-5.299,0.701-10.787,1.937-16.301,3.666 0.237-8.932-1.109-15.432-1.22-15.948-0.62-2.882-2.872-5.134-5.754-5.754-0.496-0.107-7-1.46-15.947-1.222 1.728-5.515 2.965-11.003 3.667-16.301zm57.894,71.357c-6.118,7.055-15.928,13.762-27.029,18.517-1.643-0.93-3.357-1.807-5.149-2.599 3.194-6.843 4.316-11.867 4.416-12.34 0.646-3.038-0.647-6.16-3.252-7.851-0.406-0.264-4.755-3.025-11.857-5.606 0.707-1.827 1.304-3.657 1.808-5.476 11.213-4.487 22.892-6.68 32.209-6.02 7.677,0.545 13.129,2.968 14.584,6.48 1.455,3.512-0.687,9.08-5.73,14.895zm-53.857,129.592c-6.071,0.521-16.592,0.55-26.217-3.689 0.899-5.937 1.182-12.624 0.263-19.821 0.993-0.614 1.83-1.45 2.444-2.443 3.077,0.393 6.063,0.569 8.937,0.569 3.846,0 7.487-0.315 10.884-0.83 4.239,9.628 4.208,20.151 3.689,26.214zm-84.731,35.104c-4.652-3.896-12.097-11.278-15.916-21.15 4.834-3.562 9.762-8.101 14.2-13.841 0.569,0.135 1.149,0.21 1.731,0.21 0.58,0 1.158-0.075 1.726-0.209 4.438,5.741 9.368,10.276 14.202,13.839-3.816,9.814-11.291,17.235-15.943,21.151zm-84.699-35.103c-0.52-6.07-0.55-16.588 3.686-26.212 3.396,0.514 7.036,0.829 10.881,0.829 2.873,0 5.862-0.182 8.94-0.576 0.615,0.997 1.454,1.836 2.451,2.451-0.92,7.195-0.646,13.884 0.252,19.819-9.628,4.238-20.148,4.209-26.21,3.689zm-35.105-84.732c3.898-4.656 11.292-12.096 21.163-15.91 3.56,4.83 8.095,9.751 13.829,14.187-0.272,1.143-0.272,2.333 0,3.476-5.737,4.437-10.274,9.36-13.835,14.191-9.816-3.815-17.24-11.29-21.157-15.944zm35.104-84.699c6.07-0.519 16.593-0.548 26.218,3.69-0.898,5.935-1.177,12.622-0.258,19.816-0.995,0.614-1.833,1.451-2.448,2.445-7.195-0.919-13.879-0.635-19.814,0.263-4.241-9.627-4.218-20.149-3.698-26.214zm84.715-35.091c4.661,3.925 12.12,11.344 15.929,21.148-4.832,3.561-9.756,8.093-14.193,13.83-1.14-0.27-2.327-0.271-3.467-0.001-4.435-5.736-9.358-10.271-14.188-13.832 3.81-9.803 11.264-17.225 15.919-21.145zm84.737,35.091c0.535,6.045 0.569,16.529-3.714,26.214-5.933-0.898-12.62-1.17-19.811-0.252-0.616-1-1.458-1.843-2.459-2.459 0.919-7.193 0.646-13.88-0.252-19.814 9.641-4.245 20.178-4.209 26.236-3.689zm-9.96,71.764c-4.998-4.274-11.346-8.847-17.431-10.802 2.92-5.684 4.175-13.405 4.687-19.96 14.083-2.061 26.033,1.812 32.406,4.622-2.489,6.48-8.158,17.599-19.662,26.14zm-149.551-.002c-5.508-4.102-9.688-8.819-12.817-13.345-0.013-0.067-0.019-0.133-0.034-0.199-0.407-1.842-1.463-3.369-2.87-4.408-1.768-3.107-3.044-5.958-3.925-8.231 6.343-2.823 18.211-6.693 32.387-4.596 0.511,6.559 1.766,14.289 4.688,19.978-6.084,1.955-12.431,6.528-17.429,10.801zm65.044-38.739c0-2.527 4.223-8.891 9.73-15.066 5.508,6.176 9.731,12.54 9.731,15.066 0,5.366-4.365,9.731-9.731,9.731-5.365,0-9.73-4.366-9.73-9.731zm-17.231,51.692c0-14.867 12.095-26.961 26.961-26.961s26.961,12.095 26.961,26.961-12.095,26.961-26.961,26.961-26.961-12.094-26.961-26.961zm74.167-47.206c-0.472,8.262-1.986,15.748-3.773,17.534-3.793,3.793-9.967,3.794-13.761,0-3.794-3.794-3.794-9.967 0-13.761 1.787-1.786 9.273-3.3 17.534-3.773zm-76.876,17.535c-3.794,3.794-9.968,3.794-13.762,0-1.787-1.787-3.301-9.277-3.773-17.54 8.254,0.468 15.739,1.983 17.535,3.779 3.794,3.793 3.794,9.967 0,13.761zm-22.022,19.94c5.366,0 9.731,4.365 9.731,9.731s-4.365,9.731-9.731,9.731c-2.527,0-8.894-4.226-15.07-9.735 6.166-5.506 12.531-9.727 15.07-9.727zm4.615,56.928c-0.043-0.017-0.086-0.033-0.13-0.049 0.472-8.231 1.984-15.686 3.775-17.477 1.897-1.897 4.389-2.846 6.881-2.846s4.984,0.949 6.881,2.846c3.794,3.794 3.794,9.967 0,13.761-1.778,1.778-9.197,3.284-17.407,3.765zm56.808,4.495c0,2.527-4.226,8.894-9.735,15.071-5.505-6.167-9.727-12.532-9.727-15.071 0-5.366 4.365-9.731 9.73-9.731 5.367,0 9.732,4.366 9.732,9.731zm19.941-22.021c1.897-1.897 4.389-2.845 6.88-2.845 2.492,0 4.984,0.948 6.881,2.846 1.787,1.787 3.302,9.277 3.773,17.54-8.254-0.468-15.739-1.983-17.535-3.779-3.793-3.794-3.793-9.968 0.001-13.762zm22.021-19.94c-5.366,0-9.731-4.365-9.731-9.731s4.365-9.731 9.731-9.731c2.526,0 8.891,4.224 15.066,9.731-6.176,5.508-12.54,9.731-15.066,9.731zm-7.98-71.764c-6.555,0.513-14.276,1.768-19.96,4.688-1.955-6.086-6.53-12.435-10.804-17.434 8.485-11.398 19.655-17.104 26.154-19.629 2.814,6.39 6.666,18.32 4.61,32.375zm-56.656-12.753c-4.276,5-8.854,11.351-10.81,17.44-5.686-2.922-13.411-4.177-19.968-4.689-2.063-14.081 1.818-26.03 4.629-32.404 6.482,2.491 17.609,8.148 26.149,19.653zm-61.829,87.74c4.998,4.273 11.344,8.845 17.428,10.799-2.92,5.685-4.175,13.406-4.687,19.961-14.065,2.057-25.995-1.802-32.374-4.609 2.529-6.507 8.24-17.665 19.633-26.151zm31.041,49.081c6.56-0.512 14.288-1.77 19.977-4.694 1.954,6.086 6.527,12.434 10.802,17.433-8.505,11.417-19.691,17.125-26.183,19.645-2.823-6.344-6.692-18.212-4.596-32.384zm56.678,12.746c4.276-5 8.853-11.352 10.808-17.44 5.688,2.923 13.414,4.181 19.973,4.693 2.065,14.081-1.823,26.029-4.634,32.404-6.482-2.489-17.607-8.152-26.147-19.657zm49.087-31.054c-0.512-6.558-1.766-14.286-4.688-19.974 6.084-1.955 12.431-6.527 17.429-10.8 11.398,8.487 17.109,19.654 19.634,26.151-6.392,2.816-18.323,6.685-32.375,4.623zm36.621-27.805c-3.56-4.829-8.094-9.749-13.827-14.184 0.272-1.143 0.272-2.335 0-3.478 5.736-4.437 10.273-9.359 13.834-14.191 9.806,3.81 17.224,11.274 21.145,15.929-3.925,4.662-11.348,12.115-21.152,15.924zm-38.421-113.434c-1.819,0.503-3.649,1.103-5.476,1.809-2.58-7.101-5.342-11.449-5.606-11.856-1.691-2.604-4.812-3.898-7.851-3.252-0.469,0.1-5.497,1.22-12.348,4.42-0.792-1.792-1.659-3.516-2.59-5.158 4.756-11.099 11.461-20.906 18.515-27.023 5.814-5.043 11.382-7.185 14.895-5.73 3.512,1.455 5.934,6.907 6.479,14.584 0.663,9.315-1.531,20.993-6.018,32.206zm-157.743,37.28c0.503,1.818 1.102,3.648 1.808,5.474-7.11,2.583-11.457,5.348-11.857,5.607-2.605,1.691-3.898,4.813-3.252,7.851 0.1,0.472 1.222,5.5 4.42,12.349-1.791,0.792-3.509,1.662-5.151,2.592-11.102-4.755-20.912-11.463-27.031-18.518-5.043-5.815-7.186-11.383-5.731-14.895s6.907-5.935 14.584-6.48c9.315-0.662 20.997,1.532 32.21,6.02zm-41.062,105.109c6.119-7.055 15.928-13.762 27.029-18.517 1.643,0.93 3.357,1.807 5.149,2.599-3.194,6.841-4.315,11.865-4.416,12.341-0.646,3.038 0.647,6.16 3.252,7.851 0.41,0.266 4.752,3.027 11.849,5.606-0.707,1.827-1.299,3.657-1.802,5.476-11.213,4.487-22.892,6.681-32.206,6.019-7.678-0.545-13.13-2.968-14.584-6.48s0.685-9.08 5.729-14.895zm78.339,52.634c1.818-0.503 3.647-1.104 5.473-1.81 2.579,7.096 5.34,11.443 5.609,11.858 1.401,2.159 3.785,3.417 6.29,3.417 0.518,0 1.041-0.054 1.562-0.165 0.479-0.102 5.502-1.223 12.341-4.416 0.792,1.792 1.669,3.506 2.599,5.149-4.756,11.101-11.463,20.91-18.517,27.029-5.814,5.043-11.384,7.185-14.895,5.73-3.512-1.455-5.934-6.907-6.48-14.584-0.663-9.316 1.531-20.995 6.018-32.208zm157.752-37.275c-0.504-1.819-1.109-3.651-1.816-5.479 7.109-2.582 11.456-5.347 11.856-5.607 2.605-1.691 3.898-4.813 3.252-7.851-0.1-0.472-1.222-5.5-4.42-12.348 1.791-0.792 3.508-1.662 5.15-2.592 11.102,4.756 20.913,11.463 27.032,18.518 5.043,5.815 7.186,11.383 5.73,14.895-1.455,3.512-6.907,5.935-14.584,6.48-9.313,0.668-20.989-1.53-32.2-6.016zm55.57-213.325c9.39,9.39 12.296,24.227 8.112,40.301-6.173-0.339-12.668,0.085-19.322,1.346-0.241-8.673-3.09-16.237-8.645-21.792-5.556-5.556-13.122-8.405-21.796-8.645 1.259-6.652 1.684-13.148 1.343-19.321 16.077-4.187 30.916-1.281 40.308,8.111zm-73.535-38.971c15.476,6.41 22.184,28.664 16.04,52.333-4.786,1.352-9.715,3.33-14.683,5.931-1.539-12.26-6.938-20.861-15.398-24.365-8.678-3.594-18.678-1.004-28.133,6.288-1.67-5.329-3.751-10.193-6.169-14.517 12.411-21.146 32.755-32.128 48.343-25.67zm-79.554-24.44c13.311,0 25.894,8.465 34.301,22.85-4.642,4.113-8.953,8.991-12.763,14.539-6.306-5.971-13.675-9.312-21.538-9.312s-15.232,3.341-21.538,9.312c-3.81-5.55-8.119-10.432-12.76-14.546 8.408-14.381 20.989-22.843 34.298-22.843zm-79.554,24.44c15.603-6.463 35.93,4.515 48.344,25.669-2.419,4.325-4.5,9.189-6.17,14.519-9.455-7.292-19.455-9.882-28.132-6.289-8.461,3.504-13.86,12.105-15.398,24.365-4.969-2.602-9.898-4.579-14.684-5.931-6.151-23.681 0.542-45.914 16.04-52.333zm-73.534,38.972c9.389-9.389 24.224-12.296 40.297-8.113-0.339,6.173 0.086,12.668 1.347,19.322-8.672,0.241-16.236,3.09-21.791,8.644-5.56,5.559-8.408,13.133-8.645,21.814-6.614-1.229-13.107-1.63-19.295-1.259-4.224-16.114-1.324-30.997 8.087-40.408zm-38.973,73.534c6.458-15.593 28.602-22.212 52.335-16.033 1.348,4.768 3.316,9.679 5.904,14.628-11.843,1.53-20.745,6.769-24.34,15.447-3.504,8.461-1.241,18.359 6.34,28.117-5.35,1.673-10.232,3.759-14.57,6.185-21.146-12.413-32.126-32.755-25.669-48.344zm-24.438,79.555c0-13.31 8.464-25.893 22.849-34.3 4.113,4.641 8.991,8.952 14.539,12.761-5.971,6.306-9.312,13.675-9.312,21.538s3.341,15.231 9.312,21.537c-5.557,3.81-10.451,8.111-14.569,12.747-14.367-8.407-22.819-20.982-22.819-34.283zm24.438,79.553c-6.487-15.659 4.482-35.924 25.668-48.344 4.339,2.427 9.221,4.513 14.571,6.186-7.581,9.757-9.845,19.656-6.34,28.117 3.595,8.678 12.501,13.911 24.343,15.441-2.59,4.954-4.56,9.868-5.908,14.64-23.691,6.154-45.906-0.522-52.334-16.04zm38.974,73.535c-9.385-9.386-12.293-24.214-8.118-40.279 1.335,0.073 2.684,0.111 4.048,0.111 4.94,0 10.062-0.486 15.277-1.476 0.241,8.671 3.09,16.235 8.645,21.789 5.554,5.554 13.116,8.4 21.787,8.642-1.263,6.657-1.688,13.154-1.35,19.328-16.071,4.179-30.902,1.272-40.289-8.115zm73.532,38.971c-15.513-6.426-22.192-28.638-16.04-52.327 4.785-1.352 9.716-3.342 14.683-5.943 1.538,12.263 6.937,20.865 15.399,24.37 2.62,1.085 5.357,1.607 8.167,1.607 6.497,0 13.365-2.797 19.967-7.889 1.67,5.327 3.75,10.188 6.167,14.511-12.414,21.161-32.731,32.137-48.343,25.671zm79.557,24.44c-13.309,0-25.891-8.462-34.298-22.845 4.639-4.115 8.953-8.988 12.763-14.539 6.305,5.968 13.672,9.307 21.533,9.307 7.86,0 15.227-3.339 21.533-9.307 3.811,5.553 8.125,10.428 12.766,14.544-8.409,14.379-20.989,22.84-34.297,22.84zm79.551-24.44c-15.612,6.468-35.927-4.51-48.343-25.669 2.417-4.323 4.498-9.184 6.167-14.511 6.602,5.092 13.47,7.888 19.968,7.888 2.809,0 5.548-0.522 8.167-1.607 8.462-3.505 13.861-12.107 15.399-24.37 4.966,2.6 9.896,4.59 14.679,5.942 6.163,23.71-0.482,45.884-16.037,52.327zm73.537-38.972c-9.403,9.402-24.267,12.305-40.367,8.096 0.354-6.263-0.083-12.773-1.302-19.306 8.68-0.238 16.255-3.084 21.813-8.643 5.555-5.555 8.404-13.12 8.645-21.793 5.202,0.985 10.31,1.472 15.242,1.472 1.376,0 2.738-0.039 4.085-0.113 4.179,16.068 1.271,30.9-8.116,40.287zm38.97-73.534c-6.417,15.493-28.652,22.191-52.332,16.042-1.352-4.786-3.33-9.716-5.932-14.685 12.26-1.539 20.861-6.938 24.365-15.399 3.505-8.461 1.241-18.359-6.34-28.117 5.35-1.673 10.231-3.759 14.57-6.185 21.153,12.415 32.132,32.742 25.669,48.344zm1.595-45.257c-4.114-4.64-8.995-8.949-14.545-12.759 5.972-6.306 9.313-13.676 9.313-21.538 0-7.859-3.338-15.226-9.305-21.531 5.589-3.817 10.485-8.114 14.607-12.729 14.34,8.408 22.776,20.971 22.776,34.259 0,13.309-8.463,25.891-22.846,34.298z"/>
</svg>
