<?xml version="1.0" encoding="utf-8"?>
<!-- Generator: Adobe Illustrator 19.0.0, SVG Export Plug-In . SVG Version: 6.00 Build 0)  -->
<svg version="1.2" baseProfile="tiny" id="layer" xmlns="http://www.w3.org/2000/svg" xmlns:xlink="http://www.w3.org/1999/xlink"
	 x="0px" y="0px" viewBox="0 0 200 175.8" xml:space="preserve">
<polygon fill="#176637" points="100,175.8 200,118.3 200,115.9 0,115.9 0,118.3 "/>
<polygon fill="#27AE60" points="100,173.3 200,115.9 100,58.5 0,115.9 "/>
<path fill="#D35400" d="M159.8,70.2c1.1,0,2,0.5,2,1c0,0.4,0,30.2,0,30.6c0,0.1-0.1,0.3-0.2,0.4v-0.1c-0.2,0.2-0.4,0.3-0.8,0.4v0.1
	c-0.3,0.1-0.7,0.2-1.1,0.2c-1.1,0-2-0.5-2-1c0-0.4,0-30.2,0-30.6C157.8,70.6,158.7,70.2,159.8,70.2z"/>
<path fill="#43761C" d="M160,53.3c4.9,0,13,24,13,29.2c0,3.6-3.2,10.8-13,10.8c-9.3,0-13-7.2-13-10.8
	C147.1,77.3,156.4,53.3,160,53.3z"/>
<path fill="#7BA525" d="M159.6,82.9c-1.1-10.1,0.5-29.6,0.5-29.6c4.9,0,13.1,24,13,29.2C172.9,88,160.3,89.4,159.6,82.9z"/>
<path fill="#9BBE23" d="M166.8,81.6c2.4-0.1,4.7-1.3,4.7-2.5c0-4.2-5.3-17.7-9.1-23.6c-2.2-2.5-0.3,17.5,0.6,24.1
	C163.2,81.6,166,81.7,166.8,81.6L166.8,81.6z"/>
<path fill="#396910" d="M159.1,88.9c8.4,1,12.3-1.3,12.3-1.3c-1.8,2.9-5.3,5.7-11.4,5.7c-8.8,0-12.5-6.5-12.9-10.2
	C148,85.2,153.2,88.2,159.1,88.9z"/>
<ellipse transform="matrix(-0.9458 0.3246 -0.3246 -0.9458 340.9107 70.0381)" fill="#C3DE59" cx="164.6" cy="63.5" rx="1.3" ry="6.5"/>
<polygon fill="#FFFFFF" points="42.9,81.8 44.1,80.9 59.9,90 59.9,113.2 58.7,113.9 "/>
<polygon fill="#DBDBDB" points="42.9,104.8 42.9,81.5 58.7,90.6 58.7,113.9 "/>
<polygon fill="#566472" points="56.9,91.2 44.7,84.2 44.7,104.2 56.9,111.2 "/>
<polygon fill="#DBDBDB" points="50.9,87.1 50.9,108.3 50,107.8 50,86.6 "/>
<polygon fill="#C1382A" points="97,69.6 30.5,107.7 97,145.8 163.5,107.7 "/>
<polygon fill="#DBDBDB" points="163.5,114.2 97,152.3 97,145.8 163.5,107.7 "/>
<polygon fill="#AAB7B7" points="97,152.3 30.5,114.2 30.5,107.7 97,145.8 "/>
<path fill="#DBDBDB" d="M145.6,89.1V103l-1,0.6v-15C144.9,88.7,145.3,88.9,145.6,89.1z"/>
<path fill="#DBDBDB" d="M152,92.4v13.9l-1,0.6v-15C151.3,92,151.6,92.2,152,92.4z"/>
<path fill="#DBDBDB" d="M148.8,90.8v13.9l-1,0.6v-15C148.2,90.4,148.5,90.6,148.8,90.8z"/>
<polygon fill="#DBDBDB" points="155.9,105.6 154.4,106.4 118,85.3 119.4,84.4 "/>
<polygon fill="#AAB7B7" points="154.5,109.4 118,88.2 118,85.3 154.4,106.4 "/>
<polygon fill="#DBDBDB" points="156.1,93.6 154.7,94.4 118.2,73.3 119.7,72.4 "/>
<polygon fill="#AAB7B7" points="154.7,97.4 118.2,76.3 118.2,73.3 154.7,94.4 "/>
<polygon fill="#AAB7B7" points="153.5,66.7 154.9,67.5 154.9,109.7 153.5,108.8 "/>
<polygon fill="#DBDBDB" points="157.5,66 157.5,108.2 154.9,109.7 154.9,67.5 "/>
<path fill="#AAB7B7" d="M150.9,93.1v13.8l-0.6-0.3V92.9C150.5,93,150.7,93.1,150.9,93.1z"/>
<path fill="#AAB7B7" d="M147.8,91.5v13.8l-0.6-0.3V91.3C147.4,91.4,147.6,91.5,147.8,91.5z"/>
<path fill="#AAB7B7" d="M144.6,89.8v13.8l-0.6-0.3V89.6C144.2,89.7,144.4,89.7,144.6,89.8z"/>
<polygon fill="#AAB7B7" points="97,142.4 97,100.3 36.4,65.6 36.4,107.7 "/>
<polygon fill="#DBDBDB" points="127.3,39.1 157.5,65.6 157.5,76.4 142.6,84.9 142.6,116.3 97,142.4 97,100.3 "/>
<polygon fill="#C1382A" points="126.4,34.7 94.2,99.6 33.7,65 65.8,0 "/>
<polygon fill="#87201B" points="160.3,64.3 160.3,66 157.5,67.6 157.5,65.6 127.3,39.1 97,100.3 97,102.3 94.2,103.9 94.2,99.6 
	126.4,34.7 "/>
<polygon fill="#991A17" points="94.2,103.9 94.2,99.6 33.7,65 33.7,69.2 "/>
<polygon fill="#FFFFFF" points="69.6,97.4 70.8,96.5 86.6,105.6 86.6,128.8 85.4,129.5 "/>
<polygon fill="#DBDBDB" points="69.6,120.4 69.6,97.1 85.4,106.2 85.4,129.5 "/>
<polygon fill="#566472" points="83.6,106.8 71.4,99.8 71.4,119.8 83.6,126.8 "/>
<polygon fill="#DBDBDB" points="77.6,102.7 77.6,123.9 76.7,123.4 76.7,102.2 "/>
<polygon fill="#FFFFFF" points="41.9,81.5 43.1,80.6 58.9,89.7 58.9,112.9 57.7,113.6 "/>
<polygon fill="#DBDBDB" points="41.9,104.5 41.9,81.3 57.7,90.3 57.7,113.6 "/>
<polygon fill="#566472" points="55.9,91 43.7,84 43.7,103.9 55.9,110.9 "/>
<polygon fill="#DBDBDB" points="49.9,86.9 49.9,108 49,107.5 49,86.3 "/>
<polygon fill="#FFFFFF" points="125.7,97.4 124.5,96.5 108.7,105.6 108.7,128.8 109.9,129.5 "/>
<polygon fill="#EFEFEF" points="125.7,120.4 125.7,97.1 109.9,106.2 109.9,129.5 "/>
<polygon fill="#566472" points="111.7,106.8 123.9,99.8 123.9,119.8 111.7,126.8 "/>
<polygon fill="#EFEFEF" points="117.7,102.7 117.7,123.9 118.6,123.4 118.6,102.2 "/>
<polygon fill="#FFFFFF" points="137.2,54.8 136,53.9 126.8,59 126.8,81.9 128,82.6 "/>
<polygon fill="#EFEFEF" points="137.2,77.4 137.2,54.5 128,59.7 128,82.6 "/>
<polygon fill="#566472" points="129.8,60.3 135.4,57.2 135.4,76.8 129.8,79.9 "/>
<polygon fill="#EFF3F3" points="166.7,116.2 160.9,113.3 142.7,123.3 148.5,126.6 "/>
<polygon fill="#AAB7B7" points="148.5,129.3 142.7,126 142.7,123.3 148.5,126.6 "/>
<polygon fill="#BDC3C7" points="148.5,129.3 166.7,118.9 166.7,116.2 148.5,126.6 "/>
<path fill="#61913D" d="M70.4,145.5c-3.7,0-6.6-1.9-6.6-3.2c0-1.8,0-4.2,0-4.2c0-1.8,1.6-5.5,6.6-5.5c4.7,0,6.6,3.7,6.6,5.5
	c0,0,0,3,0,4.3C77,143.6,74.3,145.5,70.4,145.5z"/>
<path fill="#9BC04E" d="M64.9,136.1c0.1,1.8,2.6,3,5.4,2.8c2.8-0.2,5-1.8,4.9-3.5c-0.1-1.8-2.6-3-5.4-2.8
	C67,132.8,64.8,134.3,64.9,136.1z"/>
<ellipse transform="matrix(-0.9814 0.1918 -0.1918 -0.9814 162.7247 252.424)" fill="#BAD950" cx="69.1" cy="134.1" rx="3" ry="1.4"/>
<ellipse transform="matrix(-0.9814 0.1918 -0.1918 -0.9814 161.7787 251.2952)" fill="#E4F991" cx="68.7" cy="133.5" rx="1.1" ry="0.5"/>
<path fill="#43761C" d="M81.9,153c-4.9,0-8.7-2.5-8.7-4.2c0-2.4,0-5.6,0-5.6c0-2.4,2.1-7.3,8.7-7.3c6.2,0,8.7,4.9,8.7,7.3
	c0,0,0,3.9,0,5.7C90.6,150.5,86.9,153,81.9,153z"/>
<path fill="#7BA525" d="M74.6,140.6c0.2,2.3,3.4,4,7.2,3.7c3.8-0.3,6.7-2.4,6.5-4.7c-0.2-2.3-3.4-4-7.2-3.7
	C77.3,136.1,74.4,138.2,74.6,140.6z"/>
<ellipse transform="matrix(-0.9814 0.1918 -0.1918 -0.9814 185.2417 257.8786)" fill="#9BBE23" cx="80.1" cy="137.9" rx="4" ry="1.8"/>
<ellipse transform="matrix(-0.9814 0.1917 -0.1917 -0.9814 183.9801 256.3856)" fill="#C3DE59" cx="79.6" cy="137.1" rx="1.5" ry="0.7"/>
<path fill="#61913D" d="M91.9,156.3c-3.3,0-5.9-1.7-5.9-2.9c0-1.6,0-3.8,0-3.8c0-1.6,1.4-4.9,5.9-4.9c4.2,0,5.9,3.3,5.9,4.9
	c0,0,0,2.7,0,3.8C97.8,154.7,95.3,156.3,91.9,156.3z"/>
<path fill="#9BC04E" d="M87,147.9c0.1,1.6,2.3,2.7,4.9,2.5s4.5-1.6,4.4-3.2c-0.1-1.6-2.3-2.7-4.9-2.5S86.8,146.4,87,147.9z"/>
<ellipse transform="matrix(-0.9814 0.1918 -0.1918 -0.9814 207.7933 272.1781)" fill="#BAD950" cx="90.7" cy="146.1" rx="2.7" ry="1.2"/>
<ellipse transform="matrix(-0.9814 0.1917 -0.1917 -0.9814 206.9389 271.1707)" fill="#E4F991" cx="90.3" cy="145.6" rx="1" ry="0.5"/>
<path fill="#61913D" d="M31.2,123.1c-3.7,0-6.6-1.9-6.6-3.2c0-1.8,0-4.2,0-4.2c0-1.8,1.6-5.5,6.6-5.5c4.7,0,6.6,3.7,6.6,5.5
	c0,0,0,3,0,4.3C37.7,121.2,35,123.1,31.2,123.1z"/>
<path fill="#9BC04E" d="M25.7,113.7c0.1,1.8,2.6,3,5.4,2.8c2.8-0.2,5-1.8,4.9-3.5c-0.1-1.8-2.6-3-5.4-2.8
	C27.7,110.4,25.5,111.9,25.7,113.7z"/>
<ellipse transform="matrix(-0.9814 0.1918 -0.1918 -0.9814 80.6216 215.5794)" fill="#BAD950" cx="29.9" cy="111.7" rx="3" ry="1.4"/>
<ellipse transform="matrix(-0.9814 0.1918 -0.1918 -0.9814 79.676 214.4514)" fill="#E4F991" cx="29.5" cy="111.1" rx="1.1" ry="0.5"/>
<path fill="#43761C" d="M42.6,130.6c-4.9,0-8.7-2.5-8.7-4.2c0-2.4,0-5.6,0-5.6c0-2.4,2.1-7.3,8.7-7.3c6.2,0,8.7,4.9,8.7,7.3
	c0,0,0,3.9,0,5.7C51.3,128.1,47.7,130.6,42.6,130.6z"/>
<path fill="#7BA525" d="M35.3,118.2c0.2,2.3,3.4,4,7.2,3.7c3.8-0.3,6.7-2.4,6.5-4.7c-0.2-2.3-3.4-4-7.2-3.7
	C38,113.8,35.1,115.8,35.3,118.2z"/>
<path fill="#9BBE23" d="M37,116.3c0.2,1,2.1,1.4,4.3,1c2.2-0.4,3.8-1.6,3.6-2.5c-0.2-1-2.1-1.4-4.3-1
	C38.4,114.2,36.8,115.3,37,116.3z"/>
<ellipse transform="matrix(-0.9814 0.1918 -0.1918 -0.9814 101.8833 219.5365)" fill="#C3DE59" cx="40.3" cy="114.7" rx="1.5" ry="0.7"/>
<path fill="#61913D" d="M52.6,134c-3.3,0-5.9-1.7-5.9-2.9c0-1.6,0-3.8,0-3.8c0-1.6,1.4-4.9,5.9-4.9c4.2,0,5.9,3.3,5.9,4.9
	c0,0,0,2.7,0,3.8C58.5,132.3,56.1,134,52.6,134z"/>
<path fill="#9BC04E" d="M47.7,125.5c0.1,1.6,2.3,2.7,4.9,2.5c2.6-0.2,4.5-1.6,4.4-3.2s-2.3-2.7-4.9-2.5
	C49.5,122.6,47.6,124,47.7,125.5z"/>
<ellipse transform="matrix(-0.9814 0.1917 -0.1917 -0.9814 125.6872 235.3357)" fill="#BAD950" cx="51.5" cy="123.7" rx="2.7" ry="1.2"/>
<ellipse transform="matrix(-0.9814 0.1917 -0.1917 -0.9814 124.8351 234.3258)" fill="#E4F991" cx="51.1" cy="123.2" rx="1" ry="0.5"/>
<path fill="#D35400" d="M20.2,91.3c1.1,0,2,0.5,2,1c0,0.4,0,30.2,0,30.6c0,0.1-0.1,0.3-0.2,0.4v-0.1c-0.2,0.2-0.4,0.3-0.8,0.4v0.1
	c-0.3,0.1-0.7,0.2-1.1,0.2c-1.1,0-2-0.5-2-1c0-0.4,0-30.2,0-30.6C18.2,91.8,19.1,91.3,20.2,91.3z"/>
<path fill="#43761C" d="M20.4,74.4c4.9,0,13,24,13,29.2c0,3.6-3.2,10.8-13,10.8c-9.3,0-13-7.2-13-10.8C7.4,98.4,16.8,74.4,20.4,74.4
	z"/>
<path fill="#7BA525" d="M19.9,104c-1.1-10.1,0.5-29.6,0.5-29.6c4.9,0,13.1,24,13,29.2C33.2,109.1,20.7,110.6,19.9,104z"/>
<path fill="#9BBE23" d="M27.1,102.7c2.4-0.1,4.7-1.3,4.7-2.5c0-4.1-5.3-17.7-9.1-23.6c-2.2-2.5-0.3,17.5,0.6,24.1
	C23.6,102.7,26.3,102.8,27.1,102.7L27.1,102.7z"/>
<path fill="#396910" d="M19.4,110.1c8.4,1,12.3-1.3,12.3-1.3c-1.8,2.9-5.3,5.7-11.4,5.7c-8.8,0-12.5-6.5-12.9-10.2
	C8.4,106.3,13.6,109.3,19.4,110.1z"/>
<ellipse transform="matrix(-0.9458 0.3246 -0.3246 -0.9458 76.0676 156.4558)" fill="#C3DE59" cx="25" cy="84.6" rx="1.3" ry="6.5"/>
<path fill="#D35400" d="M100.8,135.4c1.1,0,2,0.5,2,1c0,0.4,0,30.2,0,30.6c0,0.1-0.1,0.3-0.2,0.4v-0.1c-0.2,0.2-0.4,0.3-0.8,0.4v0.1
	c-0.3,0.1-0.7,0.2-1.1,0.2c-1.1,0-2-0.5-2-1c0-0.4,0-30.2,0-30.6C98.8,135.9,99.7,135.4,100.8,135.4z"/>
<path fill="#43761C" d="M101,104.9c4.9,0,13,37.6,13,42.8c0,3.6-3.2,10.8-13,10.8c-9.3,0-13-7.2-13-10.8
	C88,142.5,97.4,104.9,101,104.9z"/>
<path fill="#7BA525" d="M100.5,148.1C99.4,138,101,105,101,105c4.9,0,13.1,37.5,13,42.7C113.8,153.3,101.2,154.7,100.5,148.1z"/>
<path fill="#9BBE23" d="M107.7,146.9c2.4-0.1,4.7-1.3,4.7-2.5c0-4.1-5.7-31.8-9.5-37.7c-2.2-2.5,0,31.5,1,38.2
	C104.2,146.8,106.9,146.9,107.7,146.9L107.7,146.9z"/>
<path fill="#396910" d="M100,154.2c8.4,1,12.3-1.3,12.3-1.3c-1.8,2.9-5.3,5.7-11.4,5.7c-8.8,0-12.5-6.5-12.9-10.2
	C89,150.4,94.2,153.5,100,154.2z"/>
<ellipse transform="matrix(-0.9791 0.2033 -0.2033 -0.9791 232.0772 212.6755)" fill="#C3DE59" cx="105.1" cy="118.3" rx="1.7" ry="9.9"/>
</svg>
